<svg width="170" height="170" viewBox="0 0 170 170" fill="none" xmlns="http://www.w3.org/2000/svg">
<path d="M97.1052 72.9023H72.9121V97.0955H97.1052V72.9023Z" fill="#1E3CFF"/>
<path d="M157.572 72.9023H133.379V97.0955H157.572V72.9023Z" fill="#1E3CFF"/>
<path d="M36.6052 72.9023H12.4121V97.0955H36.6052V72.9023Z" fill="#1E3CFF"/>
<path d="M97.1052 12.4395H72.9121V36.6326H97.1052V12.4395Z" fill="#1E3CFF"/>
<path d="M97.1052 133.403H72.9121V157.596H97.1052V133.403Z" fill="#1E3CFF"/>
<path d="M121.269 48.7383H97.0764V72.9314H121.269V48.7383Z" fill="#1E3CFF"/>
<path d="M145.462 24.5361H121.269V48.7293H145.462V24.5361Z" fill="#1E3CFF"/>
<path d="M169.654 0.352539H145.461V24.5456H169.654V0.352539Z" fill="#1E3CFF"/>
<path d="M48.6908 72.9023H72.8838V48.7092H48.6908V72.9023Z" fill="#1E3CFF"/>
<path d="M24.4938 48.71H48.6868V24.5168L24.4938 24.5168L24.4938 48.71Z" fill="#1E3CFF"/>
<path d="M0.334227 24.5176L24.5273 24.5176L24.5273 0.324469L0.334227 0.324469L0.334227 24.5176Z" fill="#1E3CFF"/>
<path d="M121.269 97.1045H97.0764V121.298H121.269V97.1045Z" fill="#1E3CFF"/>
<path d="M145.462 121.288H121.269V145.481H145.462V121.288Z" fill="#1E3CFF"/>
<path d="M169.654 145.48H145.461V169.674H169.654V145.48Z" fill="#1E3CFF"/>
<path d="M48.6908 121.288H72.8838V97.095H48.6908V121.288Z" fill="#1E3CFF"/>
<path d="M24.4938 145.48H48.6868V121.287H24.4938L24.4938 145.48Z" fill="#1E3CFF"/>
<path d="M0.334227 169.674H24.5273L24.5273 145.481H0.334227L0.334227 169.674Z" fill="#1E3CFF"/>
</svg>
