<svg width="324" height="313" viewBox="0 0 324 313" fill="none" xmlns="http://www.w3.org/2000/svg">
<path d="M6.46094 246.532V126.573L110.411 66.594L214.361 6.61475L318.311 66.599V186.656L214.361 246.607L110.411 306.615L6.46094 246.532Z" fill="white" style="fill:white;fill-opacity:1;"/>
<path d="M6.46094 246.532V126.573L110.411 66.594M6.46094 246.532L110.411 306.615L214.361 246.607M6.46094 246.532L110.411 186.656M318.311 66.599V186.656L214.361 246.607M318.311 66.599L214.361 6.61475L110.411 66.594M318.311 66.599L214.361 126.573M110.411 66.594L214.361 126.573M110.411 66.594V186.656M214.361 126.573V246.607M214.361 246.607L110.411 186.656" stroke="black" style="stroke:black;stroke-opacity:1;" stroke-width="11"/>
<path d="M141.558 171.551L141.558 140.668L136.527 137.764L136.527 126.147L146.833 132.097L146.833 139.039L149.409 140.526C150.841 138.897 152.64 138.047 154.808 137.976C156.975 137.858 159.674 138.732 162.905 140.597C168.017 143.549 171.963 147.456 174.744 152.32C177.566 157.16 178.977 162.296 178.977 167.726L178.977 193.156L168.794 187.276L168.794 164.043C168.794 160.926 168.058 158.14 166.586 155.685C165.154 153.206 163.048 151.163 160.267 149.558C157.486 147.952 155.36 147.551 153.888 148.353C152.456 149.133 151.741 151.081 151.741 154.197L151.741 177.431L141.558 171.551Z" fill="black" style="fill:black;fill-opacity:1;"/>
<path d="M45.8924 188.171V157.288L40.8123 160.104V148.487L51.2203 142.718V151.076L53.8223 149.634C54.8135 146.109 56.383 143.02 58.5307 140.365C60.6783 137.711 63.0945 135.64 65.7791 134.152L68.9386 132.4V142.6L65.3454 144.592C62.1239 146.378 59.749 148.733 58.2209 151.658C56.734 154.56 55.9906 157.711 55.9906 161.111V182.573L45.8924 188.171Z" fill="black" style="fill:black;fill-opacity:1;"/>
<path d="M260.739 187.83C256.939 189.936 253.697 190.813 251.012 190.459C248.369 190.083 246.366 188.619 245.003 186.069C243.64 183.472 242.958 179.978 242.958 175.586C242.958 171.147 243.619 166.909 244.941 162.87C246.263 158.785 248.183 155.147 250.703 151.956C253.263 148.695 256.32 146.08 259.871 144.111C262.597 142.6 264.931 141.897 266.872 142.001C268.855 142.036 270.383 142.818 271.457 144.348L271.704 144.21V121.402L281.988 115.701V163.585L287.068 160.769V172.385L276.661 178.155V171.213L274.059 172.655C272.737 175.843 270.961 178.74 268.731 181.346C266.542 183.929 263.878 186.09 260.739 187.83ZM262.659 176.566C265.426 175.032 267.615 172.945 269.226 170.305C270.878 167.595 271.704 164.681 271.704 161.564V157.739C271.704 154.623 270.878 152.649 269.226 151.817C267.615 150.916 265.426 151.232 262.659 152.766C259.52 154.506 257.166 156.873 255.597 159.868C254.027 162.863 253.243 166.202 253.243 169.885C253.243 173.569 254.027 176.038 255.597 177.293C257.166 178.548 259.52 178.306 262.659 176.566Z" fill="black" style="fill:black;fill-opacity:1;"/>
</svg>
